<svg class="svg-icon" style="width: 1em; height: 1em;vertical-align: middle;fill: currentColor;overflow: hidden;" viewBox="0 0 1024 1024" version="1.1" xmlns="http://www.w3.org/2000/svg"><path d="M769.2288 452.1984l-86.528-50.2784 55.7056-32.256 86.6304 50.3808z" fill="#177EBC" /><path d="M769.2288 455.2704c-0.512 0-1.024-0.1024-1.536-0.4096l-86.6304-50.2784c-0.9216-0.512-1.536-1.536-1.536-2.6624s0.6144-2.1504 1.536-2.6624l55.808-32.256c0.9216-0.512 2.1504-0.512 3.072 0l86.6304 50.2784c0.9216 0.512 1.536 1.536 1.536 2.6624s-0.6144 2.1504-1.536 2.6624l-55.808 32.256c-0.4096 0.3072-1.024 0.4096-1.536 0.4096z m-80.4864-53.3504l80.4864 46.7968 49.664-28.672-80.4864-46.7968-49.664 28.672z" fill="#063157" /><path d="M694.6816 833.7408l-86.6304-50.2784-0.7168-271.872 86.528 50.3808z" fill="#0B4A78" /><path d="M694.6816 836.8128c-0.512 0-1.024-0.1024-1.536-0.4096l-86.6304-50.2784c-0.9216-0.512-1.536-1.536-1.536-2.6624l-0.8192-271.7696c0-1.1264 0.6144-2.1504 1.536-2.6624s2.1504-0.512 3.072 0l86.6304 50.2784c0.9216 0.512 1.536 1.536 1.536 2.6624l0.8192 271.4624v0.4096c0 1.6384-1.3312 2.9696-3.072 2.9696z m-83.5584-55.1936l80.4864 46.7968-0.7168-264.704-80.4864-46.7968 0.7168 264.704z" fill="#063157" /><path d="M662.3232 513.9456l-86.6304-50.2784 31.4368-18.1248 86.6304 50.2784z" fill="#177EBC" /><path d="M662.528 580.096l-86.6304-50.3808-0.2048-66.048 86.6304 50.2784zM737.9968 226.816l-43.008 24.7808c-61.6448 35.5328-88.1664 101.0688-88.064 150.528l0.1024 43.4176 86.6304 50.2784-0.1024-43.4176c-0.1024-49.4592 26.4192-114.8928 88.064-150.528l43.008-24.7808-86.6304-50.2784z" fill="#11649A" /><path d="M662.3232 517.0176c-0.512 0-1.024-0.1024-1.536-0.4096l-86.6304-50.3808c-0.9216-0.512-1.536-1.536-1.536-2.6624s0.6144-2.1504 1.536-2.6624l31.3344-18.1248c0.9216-0.512 2.1504-0.512 3.072 0l86.6304 50.2784c0.9216 0.512 1.536 1.536 1.536 2.6624s-0.6144 2.1504-1.536 2.6624l-31.3344 18.1248c-0.512 0.4096-1.024 0.512-1.536 0.512z m-80.4864-53.3504l80.4864 46.7968 25.2928-14.5408-80.4864-46.7968-25.2928 14.5408z" fill="#063157" /><path d="M662.528 583.168c-0.512 0-1.024-0.1024-1.536-0.4096L574.3616 532.48c-0.9216-0.512-1.536-1.536-1.536-2.6624l-0.2048-66.1504c0-1.1264 0.6144-2.1504 1.536-2.6624s2.1504-0.512 3.072 0l86.6304 50.3808c0.9216 0.512 1.536 1.536 1.536 2.6624l0.2048 65.7408v0.4096c0 1.536-1.3312 2.9696-3.072 2.9696z m-83.5584-55.1936l80.4864 46.7968-0.2048-58.9824-80.4864-46.7968 0.2048 58.9824zM693.76 498.8928c-0.512 0-1.024-0.1024-1.536-0.4096l-86.6304-50.2784c-0.9216-0.512-1.536-1.536-1.536-2.6624l-0.1024-43.4176c-0.1024-26.8288 7.4752-55.9104 21.1968-81.92 15.9744-30.0032 39.5264-54.6816 68.4032-71.2704l43.008-24.7808c0.9216-0.512 2.1504-0.512 3.072 0l86.6304 50.2784c0.9216 0.512 1.536 1.536 1.536 2.6624s-0.6144 2.1504-1.536 2.6624l-43.008 24.7808c-59.904 34.6112-86.6304 99.2256-86.528 147.8656l0.1024 43.4176c0 1.1264-0.6144 2.1504-1.536 2.6624-0.512 0.3072-1.024 0.4096-1.536 0.4096z m-83.5584-55.0912l80.4864 46.7968-0.1024-38.0928c-0.1024-26.8288 7.4752-55.9104 21.1968-81.92 15.9744-30.0032 39.5264-54.6816 68.4032-71.2704l38.4-22.2208-80.4864-46.7968-41.472 23.9616c-60.0064 34.6112-86.6304 99.2256-86.528 147.8656l0.1024 41.6768z" fill="#063157" /><path d="M824.6272 277.0944l0.2048 73.4208-29.5936 17.1008c-18.0224 10.4448-26.112 26.4192-26.112 46.4896l0.1024 38.0928 55.808-32.256 0.2048 66.1504-55.808 32.256 0.8192 271.7696-75.5712 43.6224-0.8192-271.7696-31.3344 18.1248-0.2048-66.1504 31.3344-18.1248-0.1024-43.4176c-0.1024-49.4592 26.4192-114.8928 88.064-150.528l43.008-24.7808z" fill="#22B1FF" /><path d="M694.6816 836.8128c-0.512 0-1.024-0.1024-1.536-0.4096-0.9216-0.512-1.536-1.536-1.536-2.6624l-0.7168-266.4448-26.8288 15.4624c-0.9216 0.512-2.1504 0.512-3.072 0-0.9216-0.512-1.536-1.536-1.536-2.6624l-0.2048-66.1504c0-1.1264 0.6144-2.1504 1.536-2.6624l29.7984-17.2032-0.1024-41.6768c-0.1024-26.8288 7.4752-55.9104 21.1968-81.92 15.9744-30.0032 39.5264-54.6816 68.4032-71.2704l43.008-24.7808c0.9216-0.512 2.1504-0.512 3.072 0 0.9216 0.512 1.536 1.536 1.536 2.6624l0.2048 73.4208c0 1.1264-0.6144 2.1504-1.536 2.6624l-29.5936 17.1008c-16.2816 9.4208-24.576 24.1664-24.576 43.8272l0.1024 32.768 51.2-29.5936c0.9216-0.512 2.1504-0.512 3.072 0 0.9216 0.512 1.536 1.536 1.536 2.6624l0.2048 66.1504c0 1.1264-0.6144 2.1504-1.536 2.6624l-54.272 31.3344 0.7168 270.0288c0 1.1264-0.6144 2.1504-1.536 2.6624l-75.5712 43.6224c-0.4096 0.3072-0.9216 0.4096-1.4336 0.4096z m-0.8192-277.9136c0.512 0 1.024 0.1024 1.536 0.4096 0.9216 0.512 1.536 1.536 1.536 2.6624l0.7168 266.4448 69.4272-40.0384-0.7168-270.0288c0-1.1264 0.6144-2.1504 1.536-2.6624l54.272-31.3344-0.2048-58.9824-51.2 29.5936c-0.9216 0.512-2.1504 0.512-3.072 0-0.9216-0.512-1.536-1.536-1.536-2.6624l-0.1024-38.0928c-0.1024-22.016 9.216-38.5024 27.648-49.152l28.0576-16.1792-0.2048-66.3552-38.4 22.2208c-59.904 34.6112-86.6304 99.2256-86.528 147.8656l0.1024 43.4176c0 1.1264-0.6144 2.1504-1.536 2.6624l-29.7984 17.2032 0.2048 58.9824 26.8288-15.4624c0.4096-0.4096 0.9216-0.512 1.4336-0.512z" fill="#063157" /><path d="M489.472 344.2688l-86.6304-50.2784c9.9328 5.7344 15.4624 18.6368 15.5648 37.4784 0.1024 38.7072-23.04 78.2336-59.6992 99.328l-75.5712 43.6224 86.6304 50.2784 75.5712-43.6224c36.6592-21.0944 59.8016-60.6208 59.6992-99.328-0.1024-18.8416-5.632-31.744-15.5648-37.4784z" fill="#177EBC" /><path d="M369.7664 527.7696c-0.512 0-1.024-0.1024-1.536-0.4096L281.6 477.0816c-0.9216-0.512-1.536-1.536-1.536-2.6624s0.6144-2.1504 1.536-2.6624l75.5712-43.6224c35.4304-20.48 58.2656-58.368 58.1632-96.6656 0-17.5104-4.9152-29.4912-13.9264-34.816-1.4336-0.8192-1.9456-2.7648-1.1264-4.1984 0.8192-1.4336 2.7648-1.9456 4.1984-1.1264l86.6304 50.2784c11.0592 6.4512 16.9984 20.2752 16.9984 40.1408 0.1024 40.448-23.9616 80.4864-61.2352 101.9904L371.3024 527.36c-0.4096 0.2048-0.9216 0.4096-1.536 0.4096z m-80.4864-53.4528l80.4864 46.7968 74.0352-42.7008c35.4304-20.48 58.2656-58.368 58.1632-96.6656 0-17.5104-4.9152-29.4912-14.0288-34.816L416.768 305.5616c3.072 6.8608 4.7104 15.5648 4.7104 25.8048 0.1024 40.448-23.9616 80.4864-61.2352 101.9904l-70.9632 40.96z" fill="#063157" /><path d="M448.8192 265.728c85.4016-49.3568 136.8064-11.3664 137.0112 69.4272 0.2048 80.7936-50.688 177.7664-136.192 227.1232L369.9712 608.256l0.512 178.9952-80.6912 46.4896-1.3312-475.4432 160.3584-92.5696z m-3.4816 215.3472c36.6592-21.0944 59.8016-60.6208 59.6992-99.328-0.1024-38.7072-23.4496-52.0192-60.0064-30.9248l-75.5712 43.6224 0.4096 130.2528 75.4688-43.6224" fill="#22B1FF" /><path d="M289.792 836.8128c-0.512 0-1.024-0.1024-1.536-0.4096-0.9216-0.512-1.536-1.536-1.536-2.6624l-1.3312-475.4432c0-1.1264 0.6144-2.1504 1.536-2.6624l160.3584-92.5696C473.088 248.1152 496.64 240.64 517.3248 240.64c44.6464 0 71.4752 35.328 71.5776 94.5152 0.1024 40.96-12.8 86.1184-36.352 126.8736-25.088 43.52-60.2112 79.1552-101.2736 102.912l-78.0288 45.056 0.512 177.152c0 1.1264-0.6144 2.1504-1.536 2.6624l-80.7936 46.592c-0.6144 0.3072-1.1264 0.4096-1.6384 0.4096z m1.7408-476.7744L292.864 828.416l74.6496-43.1104-0.512-177.152c0-1.1264 0.6144-2.1504 1.536-2.6624l79.6672-45.9776c40.2432-23.2448 74.4448-58.0608 99.1232-100.6592 23.04-39.936 35.6352-83.8656 35.5328-123.8016-0.2048-55.296-24.576-88.3712-65.4336-88.3712-19.5584 0-42.0864 7.2704-66.9696 21.6064l-158.9248 91.7504z m78.2336 167.7312c-0.512 0-1.024-0.1024-1.536-0.4096-0.9216-0.512-1.536-1.536-1.536-2.6624l-0.4096-130.2528c0-1.1264 0.6144-2.1504 1.536-2.6624L443.392 348.16c11.9808-6.9632 22.8352-10.4448 32.256-10.4448 20.48 0 32.256 15.9744 32.3584 43.9296 0.1024 40.448-23.9616 80.4864-61.2352 101.9904L371.3024 527.36c-0.4096 0.2048-0.9216 0.4096-1.536 0.4096z m2.7648-131.584l0.3072 123.0848 70.9632-40.96c35.4304-20.48 58.2656-58.368 58.1632-96.6656 0-14.1312-3.4816-37.7856-26.2144-37.7856-8.3968 0-18.2272 3.2768-29.184 9.6256l-74.0352 42.7008z" fill="#063157" /><path d="M289.792 833.7408l-86.6304-50.2784-1.3312-475.5456 86.6304 50.3808z" fill="#11649A" /><path d="M463.0528 201.5232c-23.552-13.7216-57.856-10.9568-100.864 13.824l-160.3584 92.5696 86.6304 50.2784 160.3584-92.5696c43.008-24.7808 77.312-27.5456 100.864-13.824l-86.6304-50.2784z" fill="#1C97DD" /><path d="M289.792 836.8128c-0.512 0-1.1264-0.1024-1.536-0.4096l-86.6304-50.2784c-0.9216-0.512-1.536-1.536-1.536-2.6624l-1.3312-475.4432c0-1.1264 0.6144-2.1504 1.536-2.6624s2.1504-0.512 3.072 0l86.6304 50.2784c0.9216 0.512 1.536 1.536 1.536 2.6624l1.3312 475.136v0.4096c0 1.6384-1.3312 2.9696-3.072 2.9696z m-83.5584-55.1936L286.72 828.416l-1.3312-468.3776-80.4864-46.6944 1.3312 468.2752z" fill="#063157" /><path d="M288.4608 361.3696c-0.512 0-1.024-0.1024-1.536-0.4096l-86.6304-50.2784c-0.9216-0.512-1.536-1.536-1.536-2.6624s0.6144-2.1504 1.536-2.6624l160.3584-92.5696c25.8048-14.9504 49.3568-22.4256 70.0416-22.4256 12.6976 0 24.1664 2.8672 33.8944 8.6016l86.528 50.2784c1.4336 0.8192 1.9456 2.7648 1.1264 4.1984-0.8192 1.4336-2.7648 1.9456-4.1984 1.1264-8.9088-5.12-19.2512-7.7824-30.8224-7.7824-19.5584 0-42.0864 7.2704-66.9696 21.6064l-160.3584 92.5696c-0.4096 0.3072-0.9216 0.4096-1.4336 0.4096z m-80.4864-53.4528l80.4864 46.7968 158.8224-91.7504c25.8048-14.9504 49.3568-22.4256 70.0416-22.4256 2.56 0 5.0176 0.1024 7.4752 0.3072l-63.2832-36.7616c-8.9088-5.12-19.2512-7.7824-30.8224-7.7824-19.5584 0-42.0864 7.2704-66.9696 21.6064l-155.7504 90.0096z" fill="#063157" /></svg>